# Blender 3.4.1
# www.blender.org
o Cube
v -1.308197 -0.915173 11.402933
v -0.128307 -1.516340 9.904115
v -1.477663 0.884737 10.547595
v -0.297773 0.283571 9.048777
v 0.297773 -0.283571 12.413843
v 1.477663 -0.884737 10.915025
v 0.128307 1.516340 11.558505
v 1.308197 0.915173 10.059687
vn -0.5899 0.3006 0.7494
vn -0.0847 0.9000 -0.4277
vn 0.8030 0.3158 0.5055
vn 0.5899 -0.3006 -0.7494
vn -0.8030 -0.3158 -0.5055
vn 0.0847 -0.9000 0.4277
vt 0.625000 0.500000
vt 0.375000 0.500000
vt 0.625000 0.750000
vt 0.375000 0.750000
vt 0.875000 0.500000
vt 0.625000 0.250000
vt 0.125000 0.500000
vt 0.375000 0.250000
vt 0.875000 0.750000
vt 0.625000 1.000000
vt 0.625000 0.000000
vt 0.375000 0.000000
vt 0.375000 1.000000
vt 0.125000 0.750000
s 0
f 5/5/1 3/3/1 1/1/1
f 3/3/2 8/13/2 4/4/2
f 7/11/3 6/8/3 8/12/3
f 2/2/4 8/14/4 6/7/4
f 1/1/5 4/4/5 2/2/5
f 5/6/6 2/2/6 6/8/6
f 5/5/1 7/9/1 3/3/1
f 3/3/2 7/10/2 8/13/2
f 7/11/3 5/6/3 6/8/3
f 2/2/4 4/4/4 8/14/4
f 1/1/5 3/3/5 4/4/5
f 5/6/6 1/1/6 2/2/6
